<?xml version="1.0" standalone="no"?>
<!DOCTYPE svg PUBLIC "-//W3C//DTD SVG 20010904//EN"
 "http://www.w3.org/TR/2001/REC-SVG-20010904/DTD/svg10.dtd">
<svg version="1.0" xmlns="http://www.w3.org/2000/svg"
 width="1024.000000pt" height="1024.000000pt" viewBox="0 0 1024.000000 1024.000000"
 preserveAspectRatio="xMidYMid meet">
<metadata>
Created by potrace 1.11, written by Peter Selinger 2001-2013
</metadata>
<g transform="translate(0.000000,1024.000000) scale(0.100000,-0.100000)"
fill="#000000" stroke="none">
<path d="M0 5120 l0 -5120 5120 0 5120 0 0 5120 0 5120 -5120 0 -5120 0 0
-5120z m3520 0 l0 -3200 -800 0 -800 0 0 3200 0 3200 800 0 800 0 0 -3200z
m2000 3176 c386 -55 710 -154 1033 -317 681 -342 1207 -900 1507 -1599 242
-564 316 -1184 215 -1786 -221 -1309 -1217 -2343 -2515 -2608 -256 -53 -325
-58 -817 -63 l-463 -5 0 800 0 800 418 4 c385 4 425 6 526 27 575 119 1033
521 1215 1068 56 169 75 297 76 498 0 189 -9 265 -51 421 -141 532 -567 968
-1095 1120 -184 53 -217 56 -666 61 l-423 5 0 800 0 800 463 -5 c353 -3 489
-8 577 -21z"/>
</g>
</svg>
